<svg xmlns="http://www.w3.org/2000/svg" width="134" height="40" viewBox="0 0 134 40" fill="none">
<g clip-path="url(#clip0_942_4855)">
<path d="M56.4772 23.0477H51.8359L46.2995 15.6403L44.6177 17.3694V23.0477H40.4893L40.5197 0.00439453H44.6177V12.004L50.1194 6.54724H55.2126L48.9373 12.9467L56.4772 23.0434V23.0477Z" fill="#308ACA"/>
<path d="M65.0513 23.0476H61.7224L56.4424 6.521L60.7012 6.55141L63.8388 16.3874L67.0242 6.55141H70.6399L73.8253 16.3874L76.9629 6.55141H81.2217L75.9416 23.0476H72.6128L68.8364 12.2949L65.06 23.0476H65.0513Z" fill="#154B52"/>
<path d="M110.186 23.0476H105.831L99.5562 6.521H103.911L108.009 17.9688L112.107 6.521H116.461L110.186 23.0476Z" fill="#154B52"/>
<path d="M122.198 15.8533C122.35 17.0307 122.754 17.93 123.406 18.56C124.058 19.1899 124.94 19.5027 126.044 19.5027C126.843 19.5027 127.534 19.3246 128.116 18.9727C128.699 18.6164 129.142 18.1081 129.446 17.4391L133.583 18.6251C133.179 19.607 132.606 20.4585 131.867 21.171C131.128 21.8835 130.276 22.4309 129.311 22.8046C128.347 23.1782 127.339 23.365 126.287 23.365C124.622 23.365 123.149 23.0044 121.854 22.2876C120.564 21.5664 119.551 20.5671 118.83 19.2768C118.104 17.9908 117.743 16.5354 117.743 14.9149C117.743 13.151 118.095 11.6 118.799 10.2576C119.503 8.91514 120.485 7.8768 121.741 7.14257C122.997 6.40835 124.431 6.03906 126.044 6.03906C127.656 6.03906 128.999 6.38662 130.163 7.08609C131.328 7.78556 132.223 8.78046 132.845 10.0664C133.47 11.3524 133.779 12.8643 133.779 14.5978C133.779 14.8715 133.757 15.2929 133.718 15.8577H122.193L122.198 15.8533ZM122.302 12.7818H129.537C129.394 11.6783 129.059 10.8745 128.525 10.3706C127.995 9.87093 127.226 9.61895 126.222 9.61895C124.044 9.61895 122.736 10.6747 122.297 12.7818H122.302Z" fill="#154B52"/>
<path d="M8.60453 6.02585C6.87494 6.02585 5.23225 6.52547 3.84597 7.44216V0H0V15.7532C0.0564944 16.166 0.130372 16.57 0.239015 16.9654C0.299855 17.1913 0.365041 17.4042 0.44761 17.6257C1.69483 21.0492 4.96716 23.3475 8.60453 23.3475C13.3761 23.3475 17.2612 19.4591 17.2612 14.6801C17.2612 9.90116 13.3761 6.02585 8.60453 6.02585ZM8.60453 19.4765C6.59246 19.4765 4.7803 18.2035 4.08498 16.3006C3.96765 15.9791 3.88942 15.6403 3.84162 15.2971V14.0632C3.97199 13.064 4.41091 12.1342 5.13665 11.3913C6.03621 10.4268 7.2704 9.90116 8.60019 9.90116C11.238 9.90116 13.3848 12.0474 13.3848 14.6845C13.3848 17.3216 11.238 19.4808 8.60019 19.4808L8.60453 19.4765Z" fill="#308ACA"/>
<path d="M99.1349 14.7844C99.1349 14.754 99.1393 14.7236 99.1393 14.6932C99.1393 9.91422 95.2498 6.02588 90.4695 6.02588C85.6892 6.02588 81.7998 9.91422 81.7998 14.6932C81.7998 19.4722 85.6892 23.3605 90.4695 23.3605C92.5859 23.3605 94.5284 22.5959 96.0364 21.3316V23.0607H99.1871V14.6975L99.1349 14.7888V14.7844ZM90.4695 19.4895C87.823 19.4895 85.6718 17.339 85.6718 14.6932C85.6718 12.0474 87.823 9.89685 90.4695 9.89685C93.1161 9.89685 95.2672 12.0474 95.2672 14.6932C95.2672 17.339 93.1161 19.4895 90.4695 19.4895Z" fill="#154B52"/>
<path d="M52.3835 32.8577C52.3835 34.6259 50.9451 36.0596 49.1764 36.0596C47.4077 36.0596 45.9736 34.6216 45.9736 32.8577H45.9692C45.8997 28.9086 42.6708 25.7153 38.7075 25.7153C34.7442 25.7153 31.4371 28.9737 31.4371 32.9837C31.4371 34.7519 29.9987 36.1856 28.23 36.1856C26.4613 36.1856 25.0228 34.7476 25.0228 32.9837C25.0228 28.9781 21.7635 25.7153 17.7524 25.7153C13.7413 25.7153 10.6298 28.839 10.4951 32.7317H10.482C10.482 34.5 9.0436 35.938 7.27923 35.938C5.51487 35.938 4.07209 34.5 4.07209 32.7317H0.0131836C0.0131836 36.7417 3.27682 40.0001 7.28358 40.0001C11.2903 40.0001 14.4062 36.8764 14.5409 32.9837H14.554C14.554 31.2155 15.9924 29.7818 17.7611 29.7818C19.5298 29.7818 20.9639 31.2198 20.9639 32.9837C20.9639 36.9894 24.2276 40.0001 28.2343 40.0001C32.2411 40.0001 35.5047 36.9894 35.5047 32.9837C35.5047 31.2155 36.9431 29.7818 38.7075 29.7818C40.4719 29.7818 41.9147 31.2198 41.9147 32.9837H41.919C41.9885 36.9329 45.3565 40.0001 49.3198 40.0001C53.2831 40.0001 56.4511 36.8634 56.4511 32.8577H52.3879H52.3835Z" fill="#308ACA"/>
<path d="M33.5532 6.521V14.3933C33.5532 17.126 31.3282 19.346 28.5947 19.346C25.8613 19.346 23.6406 17.1216 23.6406 14.3933V6.521H19.6382V14.3933C19.6382 19.3286 23.658 23.3473 28.5947 23.3473C33.5315 23.3473 37.5513 19.3286 37.5513 14.3933V6.521H33.5488H33.5532Z" fill="#308ACA"/>
</g>
<defs>
<clipPath id="clip0_942_4855">
<rect width="133.783" height="40" fill="white"/>
</clipPath>
</defs>
</svg>