<svg xmlns="http://www.w3.org/2000/svg" width="40" height="40" viewBox="0 0 40 40" fill="none">
  <g clip-path="url(#clip0_426_24117)">
    <path d="M8.33313 13.3331H22.4998C23.2738 13.3479 24.0367 13.1467 24.7028 12.7522C25.369 12.3577 25.912 11.7854 26.271 11.0994C26.6301 10.4135 26.7909 9.64116 26.7355 8.86895C26.6801 8.09674 26.4106 7.35524 25.9573 6.72761C25.5041 6.09999 24.8849 5.61107 24.1692 5.31568C23.4536 5.0203 22.6698 4.93014 21.9058 5.05531C21.1418 5.18049 20.4278 5.51604 19.8438 6.02435C19.2599 6.53265 18.8291 7.1936 18.5998 7.93306" stroke="#154B52" stroke-width="2.5" stroke-linecap="round" stroke-linejoin="round"></path>
    <path d="M5 20.0003H30.8333C31.6074 19.9855 32.3703 20.1866 33.0364 20.5811C33.7025 20.9757 34.2455 21.548 34.6046 22.2339C34.9636 22.9198 35.1244 23.6922 35.069 24.4644C35.0136 25.2366 34.7442 25.9781 34.2909 26.6057C33.8376 27.2333 33.2184 27.7223 32.5028 28.0177C31.7872 28.313 31.0034 28.4032 30.2394 28.278C29.4754 28.1529 28.7613 27.8173 28.1774 27.309C27.5934 26.8007 27.1626 26.1397 26.9333 25.4003" stroke="#154B52" stroke-width="2.5" stroke-linecap="round" stroke-linejoin="round"></path>
    <path d="M6.66687 26.6668H15.8335C16.6076 26.652 17.3705 26.8531 18.0366 27.2476C18.7027 27.6422 19.2457 28.2145 19.6048 28.9004C19.9638 29.5863 20.1246 30.3587 20.0692 31.1309C20.0138 31.9031 19.7444 32.6446 19.2911 33.2722C18.8378 33.8998 18.2186 34.3888 17.503 34.6842C16.7874 34.9795 16.0036 35.0697 15.2396 34.9445C14.4756 34.8194 13.7615 34.4838 13.1776 33.9755C12.5936 33.4672 12.1628 32.8062 11.9335 32.0668" stroke="#154B52" stroke-width="2.5" stroke-linecap="round" stroke-linejoin="round"></path>
  </g>
  <defs>
    <clipPath id="clip0_426_24117"><rect width="40" height="40" fill="white"></rect></clipPath>
  </defs>
</svg>